<svg id="visual" viewBox="0 0 900 600" width="900" height="600" xmlns="http://www.w3.org/2000/svg" xmlns:xlink="http://www.w3.org/1999/xlink" version="1.1"><path d="M0 257L21.5 256.2C43 255.3 86 253.7 128.8 262C171.7 270.3 214.3 288.7 257.2 294.8C300 301 343 295 385.8 288C428.7 281 471.3 273 514.2 268.2C557 263.3 600 261.7 642.8 271.2C685.7 280.7 728.3 301.3 771.2 293.3C814 285.3 857 248.7 878.5 230.3L900 212L900 601L878.5 601C857 601 814 601 771.2 601C728.3 601 685.7 601 642.8 601C600 601 557 601 514.2 601C471.3 601 428.7 601 385.8 601C343 601 300 601 257.2 601C214.3 601 171.7 601 128.8 601C86 601 43 601 21.5 601L0 601Z" fill="#00378d"></path><path d="M0 268L21.5 261.2C43 254.3 86 240.7 128.8 243.8C171.7 247 214.3 267 257.2 282.2C300 297.3 343 307.7 385.8 309.7C428.7 311.7 471.3 305.3 514.2 296C557 286.7 600 274.3 642.8 277C685.7 279.7 728.3 297.3 771.2 293.2C814 289 857 263 878.5 250L900 237L900 601L878.5 601C857 601 814 601 771.2 601C728.3 601 685.7 601 642.8 601C600 601 557 601 514.2 601C471.3 601 428.7 601 385.8 601C343 601 300 601 257.2 601C214.3 601 171.7 601 128.8 601C86 601 43 601 21.5 601L0 601Z" fill="#00499e"></path><path d="M0 341L21.5 333.2C43 325.3 86 309.7 128.8 308.8C171.7 308 214.3 322 257.2 317.2C300 312.3 343 288.7 385.8 289.8C428.7 291 471.3 317 514.2 320.5C557 324 600 305 642.8 301.5C685.7 298 728.3 310 771.2 323.5C814 337 857 352 878.5 359.5L900 367L900 601L878.5 601C857 601 814 601 771.2 601C728.3 601 685.7 601 642.8 601C600 601 557 601 514.2 601C471.3 601 428.7 601 385.8 601C343 601 300 601 257.2 601C214.3 601 171.7 601 128.8 601C86 601 43 601 21.5 601L0 601Z" fill="#005bae"></path><path d="M0 358L21.5 356.8C43 355.7 86 353.3 128.8 352C171.7 350.7 214.3 350.3 257.2 347.8C300 345.3 343 340.7 385.8 330.2C428.7 319.7 471.3 303.3 514.2 302C557 300.7 600 314.3 642.8 318.2C685.7 322 728.3 316 771.2 315.7C814 315.3 857 320.7 878.5 323.3L900 326L900 601L878.5 601C857 601 814 601 771.2 601C728.3 601 685.7 601 642.8 601C600 601 557 601 514.2 601C471.3 601 428.7 601 385.8 601C343 601 300 601 257.2 601C214.3 601 171.7 601 128.8 601C86 601 43 601 21.5 601L0 601Z" fill="#006ebe"></path><path d="M0 389L21.5 389.2C43 389.3 86 389.7 128.8 380.7C171.7 371.7 214.3 353.3 257.2 354.8C300 356.3 343 377.7 385.8 379.8C428.7 382 471.3 365 514.2 367.8C557 370.7 600 393.3 642.8 392.3C685.7 391.3 728.3 366.7 771.2 357C814 347.3 857 352.7 878.5 355.3L900 358L900 601L878.5 601C857 601 814 601 771.2 601C728.3 601 685.7 601 642.8 601C600 601 557 601 514.2 601C471.3 601 428.7 601 385.8 601C343 601 300 601 257.2 601C214.3 601 171.7 601 128.8 601C86 601 43 601 21.5 601L0 601Z" fill="#0080cc"></path><path d="M0 404L21.5 397.2C43 390.3 86 376.7 128.8 375.3C171.7 374 214.3 385 257.2 394.5C300 404 343 412 385.8 411.7C428.7 411.3 471.3 402.7 514.2 403C557 403.3 600 412.7 642.8 408.3C685.7 404 728.3 386 771.2 376.2C814 366.3 857 364.7 878.5 363.8L900 363L900 601L878.5 601C857 601 814 601 771.2 601C728.3 601 685.7 601 642.8 601C600 601 557 601 514.2 601C471.3 601 428.7 601 385.8 601C343 601 300 601 257.2 601C214.3 601 171.7 601 128.8 601C86 601 43 601 21.5 601L0 601Z" fill="#0093da"></path><path d="M0 453L21.5 447.3C43 441.7 86 430.3 128.8 427.5C171.7 424.7 214.3 430.3 257.2 427.7C300 425 343 414 385.8 410C428.7 406 471.3 409 514.2 412.5C557 416 600 420 642.8 424.7C685.7 429.3 728.3 434.7 771.2 438.2C814 441.7 857 443.3 878.5 444.2L900 445L900 601L878.5 601C857 601 814 601 771.2 601C728.3 601 685.7 601 642.8 601C600 601 557 601 514.2 601C471.3 601 428.7 601 385.8 601C343 601 300 601 257.2 601C214.3 601 171.7 601 128.8 601C86 601 43 601 21.5 601L0 601Z" fill="#00a5e7"></path><path d="M0 446L21.5 442.7C43 439.3 86 432.7 128.8 430.2C171.7 427.7 214.3 429.3 257.2 437.5C300 445.7 343 460.3 385.8 466.7C428.7 473 471.3 471 514.2 472.2C557 473.3 600 477.7 642.8 474C685.7 470.3 728.3 458.7 771.2 451.8C814 445 857 443 878.5 442L900 441L900 601L878.5 601C857 601 814 601 771.2 601C728.3 601 685.7 601 642.8 601C600 601 557 601 514.2 601C471.3 601 428.7 601 385.8 601C343 601 300 601 257.2 601C214.3 601 171.7 601 128.8 601C86 601 43 601 21.5 601L0 601Z" fill="#00b8f1"></path><path d="M0 500L21.5 495C43 490 86 480 128.8 475.5C171.7 471 214.3 472 257.2 474.5C300 477 343 481 385.8 484C428.7 487 471.3 489 514.2 489.2C557 489.3 600 487.7 642.8 480.8C685.7 474 728.3 462 771.2 462.7C814 463.3 857 476.7 878.5 483.3L900 490L900 601L878.5 601C857 601 814 601 771.2 601C728.3 601 685.7 601 642.8 601C600 601 557 601 514.2 601C471.3 601 428.7 601 385.8 601C343 601 300 601 257.2 601C214.3 601 171.7 601 128.8 601C86 601 43 601 21.5 601L0 601Z" fill="#00caf9"></path><path d="M0 527L21.5 527.8C43 528.7 86 530.3 128.8 530.5C171.7 530.7 214.3 529.3 257.2 521C300 512.7 343 497.3 385.8 489.3C428.7 481.3 471.3 480.7 514.2 488C557 495.3 600 510.7 642.8 515.8C685.7 521 728.3 516 771.2 510.8C814 505.7 857 500.3 878.5 497.7L900 495L900 601L878.5 601C857 601 814 601 771.2 601C728.3 601 685.7 601 642.8 601C600 601 557 601 514.2 601C471.3 601 428.7 601 385.8 601C343 601 300 601 257.2 601C214.3 601 171.7 601 128.8 601C86 601 43 601 21.5 601L0 601Z" fill="#00dcfe"></path><path d="M0 525L21.5 523.8C43 522.7 86 520.3 128.8 524C171.7 527.7 214.3 537.3 257.2 538.8C300 540.3 343 533.7 385.8 533C428.7 532.3 471.3 537.7 514.2 541C557 544.3 600 545.7 642.8 546.3C685.7 547 728.3 547 771.2 541.3C814 535.7 857 524.3 878.5 518.7L900 513L900 601L878.5 601C857 601 814 601 771.2 601C728.3 601 685.7 601 642.8 601C600 601 557 601 514.2 601C471.3 601 428.7 601 385.8 601C343 601 300 601 257.2 601C214.3 601 171.7 601 128.8 601C86 601 43 601 21.5 601L0 601Z" fill="#00eeff"></path><path d="M0 560L21.5 559.8C43 559.7 86 559.3 128.8 557.8C171.7 556.3 214.3 553.7 257.2 554.5C300 555.3 343 559.7 385.8 563.8C428.7 568 471.3 572 514.2 572.8C557 573.7 600 571.3 642.8 570.8C685.7 570.3 728.3 571.7 771.2 569.7C814 567.7 857 562.3 878.5 559.7L900 557L900 601L878.5 601C857 601 814 601 771.2 601C728.3 601 685.7 601 642.8 601C600 601 557 601 514.2 601C471.3 601 428.7 601 385.8 601C343 601 300 601 257.2 601C214.3 601 171.7 601 128.8 601C86 601 43 601 21.5 601L0 601Z" fill="#00ffff"></path></svg>